<svg width="74" height="74" viewBox="0 0 74 74" fill="none" xmlns="http://www.w3.org/2000/svg">
<circle cx="37" cy="37" r="37" fill="url(#paint0_linear_48_1938)"/>
<path fill-rule="evenodd" clip-rule="evenodd" d="M31.0268 16.0321C29.914 16.2326 28.5742 17.3116 28.0467 18.432C27.2846 20.0502 27.5996 22.2773 28.7456 23.3755C30.0105 24.5876 32.4058 24.4182 33.6916 23.0256C34.4729 22.1795 35.1768 20.5457 34.9804 20.0346C34.9421 19.9349 34.5525 19.7831 34.1147 19.6971C32.9437 19.4671 33.1112 19.172 34.4129 19.172C35.389 19.172 36.5541 18.3593 36.5541 17.6785C36.5541 17.2635 36.5887 17.2801 35.0038 16.9423C34.4106 16.8158 33.6377 16.5752 33.2862 16.4075C32.6275 16.093 31.6185 15.9255 31.0268 16.0321ZM24.1184 24.4969C23.8407 24.6784 23.4683 25.0566 23.2908 25.3373C22.9614 25.858 22.1291 27.5687 22.1291 27.7248C22.1291 27.7722 22.0396 28.0019 21.93 28.2351C21.6569 28.817 20.8685 31.2814 20.589 32.427C20.4627 32.9451 20.3 33.581 20.2276 33.84C20.155 34.0991 20.0591 34.9904 20.0142 35.8209C19.9488 37.0296 19.9757 37.4458 20.1494 37.9067C20.2687 38.2235 20.4237 38.7249 20.4938 39.0209C20.5639 39.317 20.9965 41.0125 21.455 42.7889C22.6844 47.5518 22.7278 47.7792 22.5325 48.4304C22.442 48.7322 21.6683 50.0388 20.8132 51.334C19.9581 52.6292 18.9992 54.0836 18.6821 54.5661C17.9494 55.6808 17.8632 56.0228 18.1586 56.644C18.5617 57.4921 19.4148 57.747 20.1354 57.2348C20.7837 56.7739 26.5473 49.0098 26.6511 48.4574C26.759 47.8834 26.7322 47.7522 25.8087 44.343C25.2845 42.408 25.1016 41.53 25.1927 41.3858C25.2639 41.2731 25.5593 41.1339 25.849 41.0766C26.6962 40.9089 28.0164 40.1855 28.8323 39.4419C29.5965 38.7452 30.4875 37.5156 30.4875 37.1575C30.4875 37.0507 29.2468 35.9517 27.7303 34.7151C25.0331 32.5157 24.6647 32.1541 24.3204 31.3686C24.1025 30.8718 24.1022 29.4833 24.3198 29.0946C25.0583 27.7757 25.9667 27.1985 27.2848 27.2107C28.1806 27.2191 28.8733 27.5287 29.7016 28.2911C30.0019 28.5675 30.3957 28.9299 30.5768 29.0965C30.7577 29.263 30.9598 29.3992 31.0258 29.3992C31.3234 29.3992 31.2565 29.0838 30.7454 28.0786C29.5847 25.7949 27.3611 24.1413 25.4746 24.159C24.8068 24.1652 24.5144 24.238 24.1184 24.4969ZM26.5734 28.5676C25.8944 28.8681 25.3646 29.6159 25.3646 30.2739C25.3646 30.9962 25.5857 31.2605 27.5227 32.8546C32.8019 37.1993 32.5503 37.0368 33.7613 36.881C34.1481 36.8312 35.2532 36.7042 36.2171 36.5987C40.0867 36.1752 40.5389 36.1212 40.7336 36.0599C41.3719 35.859 41.3867 34.7399 40.7545 34.4893C40.5575 34.4113 39.6379 34.2599 38.7111 34.1527C37.7843 34.0456 36.3586 33.8802 35.543 33.7852C34.7274 33.6901 33.9084 33.5464 33.723 33.4658C33.401 33.3256 32.7415 32.7627 30.2364 30.4896C28.4578 28.8758 27.8423 28.4558 27.2722 28.4667C27.0015 28.4719 26.6871 28.5173 26.5734 28.5676ZM41.2389 36.4404C41.035 36.607 40.8681 36.8239 40.8681 36.9223C40.8681 37.0208 41.7325 37.978 42.7892 39.0496C47.3379 43.6627 50.8102 45.9557 53.2377 45.9492C54.1 45.9469 54.2736 45.8757 54.3993 45.4732C54.5363 45.0344 54.2069 44.7359 53.4699 44.6307C52.9226 44.5525 52.7991 44.4858 52.7991 44.2675C52.7991 44.0304 52.8756 44.005 53.4731 44.0436C55.3582 44.1658 55.4481 44.1553 55.7283 43.7825C56.0584 43.3431 56.0946 42.5468 55.7991 42.2208C55.6773 42.0867 55.1582 41.8317 54.6452 41.654C53.8507 41.3791 53.676 41.2599 53.4657 40.8489C53.0013 39.9418 52.613 39.5168 52.1603 39.4202C51.9185 39.3685 51.6448 39.2653 51.552 39.1907C51.3508 39.029 51.3327 38.4316 51.5146 37.9543C51.8132 37.1705 51.2337 37.0074 50.4322 37.6497C50.0584 37.9492 49.631 38.6768 49.631 39.0135C49.631 39.1154 49.4339 39.3631 49.1928 39.5639C48.5955 40.0615 48.4284 40.3953 48.4203 41.1067C48.4166 41.4398 48.3657 41.7873 48.3075 41.879C48.1078 42.1928 45.1436 39.5955 42.7035 36.9687C42.2737 36.5062 41.8518 36.1298 41.7658 36.1325C41.68 36.1352 41.4427 36.2737 41.2389 36.4404ZM37.8851 40.0638C37.7057 40.2304 37.4551 40.6391 37.3281 40.9722C36.9817 41.8804 36.7903 44.0946 36.9569 45.2668C37.1136 46.3696 37.2332 46.6546 37.7825 47.235C38.1524 47.6257 38.172 47.7103 38.2189 49.119C38.2699 50.6525 38.4879 51.626 39.0359 52.767C39.5656 53.8701 40.0857 55.5264 40.2093 56.5033C40.3829 57.8761 40.887 58.2876 41.5419 57.5917C41.85 57.2643 41.8551 57.22 41.7337 55.8998L41.609 54.5439L42.0121 54.0492C42.2338 53.7771 42.5507 53.4054 42.7164 53.2233C42.8821 53.0413 43.1558 52.6324 43.3245 52.315C43.4932 51.9974 43.6726 51.7377 43.723 51.7377C43.7735 51.7377 44.0466 51.958 44.33 52.2274C45.6733 53.5042 47.2156 53.5302 48.6239 52.2997C48.8209 52.1277 49.0196 52.0246 49.0657 52.0706C49.1118 52.1166 49.194 53.0975 49.2484 54.2504C49.3027 55.4032 49.3864 56.5242 49.4341 56.7415C49.5374 57.2109 50.0119 57.443 50.494 57.26C50.8694 57.1176 50.9153 56.9109 51.1073 54.4964C51.2356 52.8831 51.4432 52.1094 51.9917 51.1994C52.5773 50.228 52.8748 49.3203 52.9045 48.4145L52.9339 47.5161L51.9686 47.2202C50.8114 46.8654 49.5873 46.3081 48.9996 45.8685C48.5519 45.5337 48.0884 45.4517 47.9458 45.6821C47.7997 45.9181 47.26 45.8282 46.2411 45.398C45.6958 45.1676 45.1889 44.9343 45.1147 44.8792C44.6871 44.5618 42.5312 43.9327 41.8707 43.9327C41.1752 43.9327 40.0329 44.3213 39.8473 44.6211C39.7062 44.8491 39.519 44.7365 39.116 44.1811C38.6836 43.5854 38.3874 42.7349 38.4202 42.1833C38.4311 41.9983 38.5706 41.4748 38.7303 41.0201C38.8899 40.5652 38.9832 40.096 38.9375 39.9772C38.8177 39.6658 38.2647 39.7114 37.8851 40.0638ZM27.9261 41.6594C26.8081 42.2685 26.5612 42.4511 26.6536 42.6002C26.6998 42.675 26.9078 43.3839 27.1156 44.1756C27.3235 44.9671 27.6211 46.0937 27.7772 46.6792C27.9332 47.2646 28.0609 47.908 28.0609 48.1089C28.0609 48.6286 27.7081 49.5589 27.3167 50.0711C26.8818 50.6403 26.8958 50.8703 27.4634 52.4778C27.7247 53.218 28.1872 54.5502 28.4911 55.4383C28.7949 56.3265 29.1293 57.1842 29.2342 57.3444C29.5109 57.7671 30.2655 58.0891 30.7183 57.9778C31.6843 57.7401 32.0585 57.1231 31.9124 56.0084C31.8247 55.3404 30.6539 49.2616 30.364 47.9698C30.2893 47.6367 30.1017 46.6981 29.9472 45.8839C29.7926 45.0698 29.6095 44.1615 29.5402 43.8654C29.471 43.5694 29.3545 42.9787 29.2813 42.5528C29.1456 41.7626 28.9365 41.2357 28.7639 41.2484C28.7109 41.2523 28.3339 41.4372 27.9261 41.6594Z" fill="white"/>
<defs>
<linearGradient id="paint0_linear_48_1938" x1="37" y1="0" x2="37" y2="74" gradientUnits="userSpaceOnUse">
<stop stop-color="#067337"/>
<stop offset="1" stop-color="#00853C"/>
</linearGradient>
</defs>
</svg>
