<svg width="46" height="46" viewBox="0 0 46 46" fill="none" xmlns="http://www.w3.org/2000/svg">
<rect width="46" height="46" rx="10" fill="white"/>
<path d="M33.4775 17.9323L31.37 26.3638C31.2892 26.6886 31.1019 26.977 30.8381 27.1829C30.5742 27.3889 30.249 27.5005 29.9143 27.5H16.9175C16.5498 27.5001 16.1949 27.365 15.9203 27.1206C15.6457 26.8761 15.4705 26.5392 15.428 26.174L13.9093 14H12.875C12.5766 14 12.2905 13.8815 12.0795 13.6705C11.8685 13.4595 11.75 13.1734 11.75 12.875C11.75 12.5766 11.8685 12.2905 12.0795 12.0795C12.2905 11.8685 12.5766 11.75 12.875 11.75H14.8903C15.1621 11.75 15.4248 11.8485 15.6296 12.0272C15.8345 12.2058 15.9678 12.4527 16.0048 12.722L16.5913 17H32.75C32.864 17 32.9765 17.026 33.079 17.076C33.1814 17.126 33.2711 17.1987 33.3413 17.2886C33.4114 17.3785 33.4601 17.4831 33.4837 17.5947C33.5073 17.7062 33.5052 17.8217 33.4775 17.9323ZM16.25 31.25C16.25 32.4905 17.2595 33.5 18.5 33.5C19.7405 33.5 20.75 32.4905 20.75 31.25C20.75 30.0095 19.7405 29 18.5 29C17.2595 29 16.25 30.0095 16.25 31.25ZM29.75 31.25C29.75 30.0095 28.7405 29 27.5 29C26.2595 29 25.25 30.0095 25.25 31.25C25.25 32.4905 26.2595 33.5 27.5 33.5C28.7405 33.5 29.75 32.4905 29.75 31.25Z" fill="#00853C"/>
</svg>
