<svg width="24" height="24" viewBox="0 0 24 24" fill="none" xmlns="http://www.w3.org/2000/svg">
<path d="M11.9919 17.0001C12.1564 17.0011 12.3195 16.9696 12.4717 16.9074C12.624 16.8452 12.7625 16.7535 12.8793 16.6377L20.3785 9.13848C20.6139 8.90313 20.7461 8.58392 20.7461 8.25108C20.7461 7.91823 20.6139 7.59902 20.3785 7.36367C20.1432 7.12831 19.824 6.99609 19.4911 6.99609C19.1583 6.99609 18.8391 7.12831 18.6037 7.36367L11.9919 13.988L5.38011 7.37617C5.141 7.17141 4.83344 7.06441 4.51888 7.07656C4.20432 7.08871 3.90593 7.21911 3.68333 7.44171C3.46074 7.6643 3.33034 7.9627 3.31819 8.27726C3.30604 8.59182 3.41303 8.89938 3.61779 9.13848L11.117 16.6377C11.3498 16.8686 11.664 16.9988 11.9919 17.0001Z" fill="#010101"/>
</svg>
