<svg width="74" height="74" viewBox="0 0 74 74" fill="none" xmlns="http://www.w3.org/2000/svg">
<circle cx="37" cy="37" r="37" fill="url(#paint0_linear_48_1932)"/>
<path d="M58.299 27.7344L37.4656 17.3177C37.321 17.2455 37.1615 17.2078 36.9997 17.2078C36.838 17.2078 36.6785 17.2455 36.5339 17.3177L15.7005 27.7344C15.5275 27.821 15.3819 27.9541 15.2803 28.1187C15.1786 28.2834 15.1249 28.4731 15.125 28.6667V32.8333C15.1254 33.011 15.171 33.1857 15.2576 33.3409C15.3441 33.4961 15.4688 33.6266 15.6198 33.7203C15.7714 33.8117 15.9435 33.8637 16.1203 33.8715C16.2972 33.8793 16.4732 33.8427 16.6323 33.7651L37 23.5802L57.3672 33.7656C57.526 33.8453 57.7026 33.8829 57.8802 33.875C58.0577 33.8671 58.2302 33.8139 58.3814 33.7205C58.5325 33.627 58.6572 33.4964 58.7436 33.3411C58.8301 33.1859 58.8753 33.011 58.875 32.8333V28.6667C58.8751 28.4731 58.8212 28.2833 58.7195 28.1186C58.6177 27.954 58.4721 27.8209 58.299 27.7344Z" fill="white"/>
<path d="M18.25 35.2859V55.75C18.2499 55.8868 18.2768 56.0223 18.3292 56.1487C18.3815 56.2751 18.4582 56.39 18.5549 56.4867C18.6517 56.5835 18.7665 56.6602 18.893 56.7125C19.0194 56.7649 19.1549 56.7917 19.2917 56.7917H54.7083C54.8451 56.7917 54.9806 56.7649 55.107 56.7125C55.2335 56.6602 55.3483 56.5835 55.4451 56.4867C55.5418 56.39 55.6185 56.2751 55.6708 56.1487C55.7232 56.0223 55.7501 55.8868 55.75 55.75V35.2854L37 25.9099L18.25 35.2859ZM33.0865 34.5818C34.2453 34.3786 35.4 35.4792 35.6854 37.0922V37.0943C35.9693 38.7078 35.2745 40.1359 34.1036 40.3432C34.0102 40.3594 33.9156 40.3676 33.8208 40.3677C32.7495 40.3677 31.7641 39.3156 31.5036 37.8307C31.2187 36.2177 31.913 34.7891 33.0865 34.5818ZM30.4521 42.9807C30.3926 43.2938 30.2561 43.5872 30.0549 43.8344C29.8536 44.0815 29.594 44.2746 29.2995 44.3964C29.1197 44.4609 28.9301 44.494 28.7391 44.4943C27.7703 44.4943 26.7734 43.662 26.3047 42.3745C25.7432 40.8323 26.1807 39.3068 27.2995 38.8974C27.6033 38.8027 27.9259 38.7845 28.2384 38.8445C28.551 38.9045 28.8439 39.0407 29.0911 39.2412C29.6385 39.6802 30.0549 40.2611 30.2949 40.9205C30.5349 41.5799 30.5892 42.2926 30.4521 42.9807ZM43.7057 40.9198C43.9355 40.2554 44.3535 39.6722 44.9089 39.2412C45.1561 39.0407 45.449 38.9045 45.7616 38.8445C46.0741 38.7845 46.3967 38.8027 46.7005 38.8974C47.8193 39.3063 48.2568 40.8323 47.6953 42.3745C47.2266 43.6625 46.2297 44.4943 45.2609 44.4943C45.0702 44.4941 44.881 44.4609 44.7016 44.3964C44.4068 44.2749 44.1469 44.0818 43.9455 43.8346C43.744 43.5875 43.6074 43.294 43.5479 42.9807C43.3995 42.293 43.4543 41.5769 43.7057 40.9198ZM37 51.6063C33.1615 51.6063 30.8698 50.213 30.8698 47.8792C30.8698 45.4156 33.5474 42.551 37 42.551C40.4526 42.551 43.1302 45.4156 43.1302 47.8792C43.1302 50.2125 40.8385 51.6063 37 51.6063ZM38.3141 37.0943V37.0922C38.599 35.4813 39.7359 34.3745 40.9125 34.5818C42.0865 34.7896 42.7812 36.2172 42.4958 37.8328C42.2354 39.3162 41.249 40.3682 40.1802 40.3682C40.0856 40.3682 39.9911 40.36 39.8979 40.3438C38.7255 40.1359 38.0302 38.7078 38.3141 37.0943Z" fill="white"/>
<defs>
<linearGradient id="paint0_linear_48_1932" x1="37" y1="0" x2="37" y2="74" gradientUnits="userSpaceOnUse">
<stop stop-color="#067337"/>
<stop offset="1" stop-color="#00853C"/>
</linearGradient>
</defs>
</svg>
