<svg width="36" height="36" viewBox="0 0 36 36" fill="none" xmlns="http://www.w3.org/2000/svg">
<rect width="36" height="36" rx="18" fill="#03853C" fill-opacity="0.1"/>
<path d="M27.3569 22.8797L20.4598 10.2009C19.3516 8.33532 16.6503 8.33284 15.5406 10.2009L8.64381 22.8797C7.51098 24.786 8.88249 27.2 11.1028 27.2H24.8974C27.1158 27.2 28.4897 24.7879 27.3569 22.8797ZM18.0002 24.9119C17.3695 24.9119 16.8562 24.3985 16.8562 23.7679C16.8562 23.1372 17.3695 22.6238 18.0002 22.6238C18.6309 22.6238 19.1442 23.1372 19.1442 23.7679C19.1442 24.3985 18.6309 24.9119 18.0002 24.9119ZM19.1442 20.3358C19.1442 20.9664 18.6309 21.4798 18.0002 21.4798C17.3695 21.4798 16.8562 20.9664 16.8562 20.3358V14.6156C16.8562 13.9849 17.3695 13.4716 18.0002 13.4716C18.6309 13.4716 19.1442 13.9849 19.1442 14.6156V20.3358Z" fill="#03853C"/>
</svg>
