<svg width="36" height="36" viewBox="0 0 36 36" fill="none" xmlns="http://www.w3.org/2000/svg">
<rect width="36" height="36" rx="18" fill="#03853C" fill-opacity="0.1"/>
<path d="M26.25 10.5C22.08 10.5 18.5025 7.69497 18.465 7.66497C18.3326 7.56033 18.1688 7.50342 18 7.50342C17.8312 7.50342 17.6674 7.56033 17.535 7.66497C17.4975 7.69497 13.935 10.5 9.75 10.5C9.55109 10.5 9.36032 10.579 9.21967 10.7196C9.07902 10.8603 9 11.0511 9 11.25V18C9 23.0325 11.0325 25.5 17.6925 28.4325C17.7892 28.4759 17.894 28.4984 18 28.4984C18.106 28.4984 18.2108 28.4759 18.3075 28.4325C24.9675 25.5 27 23.0325 27 18V11.25C27 11.0511 26.921 10.8603 26.7803 10.7196C26.6397 10.579 26.4489 10.5 26.25 10.5ZM18 24C16.8133 24 15.6533 23.6481 14.6666 22.9888C13.6799 22.3295 12.9108 21.3924 12.4567 20.2961C12.0026 19.1997 11.8838 17.9933 12.1153 16.8294C12.3468 15.6655 12.9182 14.5964 13.7574 13.7573C14.5965 12.9182 15.6656 12.3468 16.8295 12.1153C17.9933 11.8837 19.1997 12.0026 20.2961 12.4567C21.3925 12.9108 22.3295 13.6799 22.9888 14.6665C23.6481 15.6532 24 16.8133 24 18C24 19.5913 23.3679 21.1174 22.2426 22.2426C21.1174 23.3678 19.5913 24 18 24Z" fill="#03853C"/>
<path d="M19.7174 15.9674L17.2499 18.4424L16.2824 17.4674C16.2125 17.3975 16.1294 17.342 16.0381 17.3041C15.9467 17.2663 15.8488 17.2468 15.7499 17.2468C15.651 17.2468 15.5531 17.2663 15.4617 17.3041C15.3703 17.342 15.2873 17.3975 15.2174 17.4674C15.1475 17.5373 15.092 17.6203 15.0541 17.7117C15.0163 17.8031 14.9968 17.901 14.9968 17.9999C14.9968 18.0988 15.0163 18.1967 15.0541 18.2881C15.092 18.3794 15.1475 18.4625 15.2174 18.5324L16.7174 20.0324C16.7871 20.1027 16.8701 20.1585 16.9615 20.1966C17.0529 20.2346 17.1509 20.2542 17.2499 20.2542C17.3489 20.2542 17.4469 20.2346 17.5383 20.1966C17.6297 20.1585 17.7127 20.1027 17.7824 20.0324L20.7824 17.0324C20.8523 16.9625 20.9078 16.8794 20.9456 16.7881C20.9835 16.6967 21.003 16.5988 21.003 16.4999C21.003 16.401 20.9835 16.3031 20.9456 16.2117C20.9078 16.1203 20.8523 16.0373 20.7824 15.9674C20.7125 15.8975 20.6294 15.842 20.5381 15.8041C20.4467 15.7663 20.3488 15.7468 20.2499 15.7468C20.151 15.7468 20.0531 15.7663 19.9617 15.8041C19.8703 15.842 19.7873 15.8975 19.7174 15.9674Z" fill="#03853C"/>
</svg>
