<svg width="36" height="36" viewBox="0 0 36 36" fill="none" xmlns="http://www.w3.org/2000/svg">
<rect width="36" height="36" rx="18" fill="#03853C" fill-opacity="0.1"/>
<path d="M23.9532 19.4074L23.1712 18.9559C23.2405 18.6191 23.2734 18.308 23.2734 18C23.2734 17.692 23.2405 17.3809 23.1713 17.0441L23.9533 16.5926C24.0878 16.5149 24.186 16.3869 24.2263 16.2368C24.2665 16.0867 24.2454 15.9268 24.1677 15.7922L22.9958 13.7625C22.834 13.4822 22.4757 13.3862 22.1955 13.548L21.4206 13.9954C20.9349 13.5834 20.3712 13.2614 19.7578 13.0457V12.1406C19.7578 11.817 19.4955 11.5547 19.1719 11.5547H16.8281C16.5045 11.5547 16.2422 11.817 16.2422 12.1406V13.0457C15.6288 13.2614 15.0651 13.5834 14.5794 13.9954L13.8045 13.548C13.5242 13.3861 13.1659 13.4822 13.0041 13.7625L11.8322 15.7922C11.7546 15.9268 11.7335 16.0867 11.7737 16.2368C11.814 16.3869 11.9121 16.5149 12.0467 16.5926L12.8287 17.0441C12.7594 17.3809 12.7265 17.692 12.7265 18C12.7265 18.308 12.7594 18.6191 12.8286 18.9559L12.0466 19.4074C11.9121 19.4851 11.8139 19.6131 11.7736 19.7632C11.7334 19.9133 11.7545 20.0732 11.8322 20.2078L13.004 22.2375C13.1659 22.5179 13.5242 22.6139 13.8044 22.452L14.5793 22.0046C15.065 22.4166 15.6287 22.7386 16.2421 22.9543V23.8594C16.2421 24.183 16.5044 24.4453 16.828 24.4453H19.1718C19.4954 24.4453 19.7577 24.183 19.7577 23.8594V22.9543C20.3711 22.7386 20.9348 22.4166 21.4205 22.0046L22.1954 22.452C22.4756 22.6138 22.8339 22.5178 22.9958 22.2375L24.1676 20.2078C24.2061 20.1412 24.2311 20.0676 24.2412 19.9913C24.2512 19.915 24.2462 19.8375 24.2262 19.7632C24.2063 19.6889 24.172 19.6192 24.1251 19.5581C24.0783 19.4971 24.0199 19.4459 23.9532 19.4074ZM17.9999 19.7578C17.0307 19.7578 16.2421 18.9693 16.2421 18C16.2421 17.0307 17.0307 16.2422 17.9999 16.2422C18.9692 16.2422 19.7578 17.0307 19.7578 18C19.7578 18.9693 18.9692 19.7578 17.9999 19.7578Z" fill="#03853C"/>
<path d="M26.0136 12.0143L25.185 9.52832C25.0827 9.22133 24.7508 9.05535 24.4438 9.15773C24.1368 9.26008 23.9709 9.59187 24.0732 9.89891L24.1437 10.1102C23.6152 9.70791 23.0497 9.35674 22.4548 9.06141C21.0549 8.36703 19.5145 8 18 8C15.3434 8 12.8362 9.04414 10.9402 10.9402C9.04414 12.8362 8 15.3434 8 18C8 19.227 8.25777 20.4839 8.76605 21.7361C8.85848 21.9637 9.07773 22.1017 9.30914 22.1017C9.38254 22.1017 9.45719 22.0878 9.52937 22.0586C9.82922 21.9368 9.97359 21.5951 9.85187 21.2952C9.40062 20.1838 9.17187 19.0751 9.17187 18C9.17187 13.1321 13.1321 9.17187 18 9.17187C19.7867 9.17187 21.5904 9.76625 23.0889 10.7971C22.8025 10.7383 22.5108 10.9012 22.416 11.1855C22.3137 11.4925 22.4796 11.8244 22.7866 11.9267L25.2725 12.7554C25.3757 12.7898 25.4865 12.7947 25.5924 12.7697C25.6983 12.7447 25.7951 12.6907 25.872 12.6138C25.949 12.5369 26.003 12.44 26.028 12.3341C26.053 12.2282 26.048 12.1175 26.0136 12.0143ZM27.2339 14.2639C27.1122 13.9641 26.7704 13.8198 26.4706 13.9414C26.1708 14.0632 26.0264 14.4049 26.1481 14.7048C26.5994 15.8162 26.8281 16.9249 26.8281 18C26.8281 22.8679 22.8679 26.8281 18 26.8281C16.2133 26.8281 14.4096 26.2337 12.9111 25.2029C13.1975 25.2616 13.4892 25.0988 13.584 24.8145C13.6863 24.5075 13.5204 24.1756 13.2134 24.0733L10.7275 23.2446C10.6243 23.2102 10.5135 23.2052 10.4076 23.2302C10.3016 23.2552 10.2048 23.3092 10.1278 23.3861C10.0509 23.4631 9.99689 23.5599 9.97189 23.6658C9.9469 23.7718 9.9519 23.8825 9.98633 23.9858L10.815 26.4717C10.8968 26.7173 11.1254 26.8726 11.3708 26.8725C11.4322 26.8725 11.4947 26.8628 11.5561 26.8423C11.8631 26.74 12.029 26.4082 11.9267 26.1012L11.8563 25.8899C12.3848 26.2922 12.9503 26.6433 13.5452 26.9387C14.9451 27.633 16.4855 28 18 28C20.6566 28 23.1638 26.9559 25.0598 25.0598C26.9559 23.1638 28 20.6566 28 18C28 16.773 27.7422 15.5161 27.2339 14.2639Z" fill="#03853C"/>
</svg>
