<svg width="20" height="20" viewBox="0 0 20 20" fill="none" xmlns="http://www.w3.org/2000/svg">
<g clip-path="url(#clip0_3076_967)">
<path d="M10 0C5.865 0 2.5 3.38833 2.5 7.55417C2.5 13.4733 9.295 19.585 9.58417 19.8417C9.69846 19.944 9.84644 20.0006 9.99984 20.0008C10.1532 20.0009 10.3013 19.9446 10.4158 19.8425C10.705 19.585 17.5 13.4733 17.5 7.55417C17.5 3.38833 14.135 0 10 0ZM10 11.6667C7.7025 11.6667 5.83333 9.7975 5.83333 7.5C5.83333 5.2025 7.7025 3.33333 10 3.33333C12.2975 3.33333 14.1667 5.2025 14.1667 7.5C14.1667 9.7975 12.2975 11.6667 10 11.6667Z" fill="white"/>
</g>
<defs>
<clipPath id="clip0_3076_967">
<rect width="20" height="20" fill="white"/>
</clipPath>
</defs>
</svg>
