<svg width="20" height="20" viewBox="0 0 20 20" fill="none" xmlns="http://www.w3.org/2000/svg">
<g clip-path="url(#clip0_3076_963)">
<path d="M11.6714 12.2536C11.1739 12.5853 10.5959 12.7606 10 12.7606C9.40414 12.7606 8.82617 12.5853 8.32859 12.2536L0.133164 6.78977C0.087922 6.75952 0.0435173 6.72803 0 6.69535L0 15.6484C0 16.6748 0.833008 17.4895 1.84113 17.4895H18.1588C19.1853 17.4895 20 16.6565 20 15.6484V6.69531C19.9564 6.72808 19.9119 6.75963 19.8665 6.78992L11.6714 12.2536Z" fill="white"/>
<path d="M0.783204 5.81463L8.97863 11.2785C9.28887 11.4853 9.64441 11.5887 9.99996 11.5887C10.3555 11.5887 10.7111 11.4853 11.0214 11.2785L19.2168 5.81463C19.7072 5.48787 20 4.941 20 4.35076C20 3.33588 19.1743 2.51025 18.1595 2.51025H1.84051C0.825665 2.51029 9.68791e-07 3.33592 9.68791e-07 4.35174C-0.000303273 4.64127 0.0710559 4.92638 0.207714 5.18163C0.344372 5.43689 0.54208 5.65435 0.783204 5.81463Z" fill="white"/>
</g>
<defs>
<clipPath id="clip0_3076_963">
<rect width="20" height="20" fill="white"/>
</clipPath>
</defs>
</svg>
