<svg width="16" height="16" viewBox="0 0 16 16" fill="none" xmlns="http://www.w3.org/2000/svg">
<g clip-path="url(#clip0_85_1120)">
<path d="M8.03125 0C3.63719 0 0 3.57469 0 7.96875C0 12.3628 3.63719 16 8.03125 16C12.4253 16 16 12.3628 16 7.96875C16 3.57469 12.4253 0 8.03125 0ZM11.9756 10.5872C12.3413 10.9528 12.3413 11.5475 11.9756 11.9134C11.6128 12.2759 11.0181 12.2819 10.6494 11.9134L8.03125 9.29438L5.35031 11.9137C4.98469 12.2794 4.39 12.2794 4.02406 11.9137C3.65844 11.5481 3.65844 10.9534 4.02406 10.5875L6.64281 7.96875L4.02406 5.35C3.65844 4.98406 3.65844 4.38937 4.02406 4.02375C4.39 3.65812 4.98469 3.65812 5.35031 4.02375L8.03125 6.64313L10.6494 4.02375C11.0144 3.65875 11.6091 3.6575 11.9756 4.02375C12.3413 4.38937 12.3413 4.98406 11.9756 5.35L9.35688 7.96875L11.9756 10.5872Z" fill="#BE1313"/>
</g>
<defs>
<clipPath id="clip0_85_1120">
<rect width="16" height="16" fill="white"/>
</clipPath>
</defs>
</svg>
