<svg width="74" height="74" viewBox="0 0 74 74" fill="none" xmlns="http://www.w3.org/2000/svg">
<circle cx="37" cy="37" r="37" fill="url(#paint0_linear_77_939)"/>
<path fill-rule="evenodd" clip-rule="evenodd" d="M32.4299 18.3438C27.6365 19.0048 23.4971 21.8666 21.5343 25.8764C20.7579 27.4623 20.4684 28.539 20.3604 30.2413C20.1196 34.0356 21.4978 39.2611 23.8406 43.4357C25.2446 45.9377 25.3402 46.2484 25.337 48.2984C25.3342 50.0749 25.245 50.5646 24.1857 54.6099L23.4733 57.3311L23.6552 57.5639L23.8371 57.7966L31.4165 57.8198C40.0285 57.8463 39.2874 57.9167 39.4217 57.0589C39.5469 56.2585 39.9415 54.9486 40.2377 54.35C40.808 53.1971 41.8094 52.442 43.0895 52.1994C43.3774 52.1448 44.5293 52.0832 45.6493 52.0625C46.7694 52.0418 47.8608 51.9798 48.0747 51.9248C49.7904 51.4836 50.5881 50.3003 50.4582 48.3893C50.4068 47.6336 50.4241 47.4747 50.597 47.1168C50.7056 46.8918 50.795 46.5851 50.7956 46.4351C50.7972 46.0619 50.4099 45.31 50.0492 44.9866C49.7122 44.6842 49.6769 44.5722 49.9183 44.571C50.213 44.5695 51.0863 44.0276 51.2781 43.7271C51.5224 43.3445 51.5209 42.6158 51.2745 41.8451C50.9375 40.791 51.0332 40.4663 51.7398 40.2659C52.4119 40.0753 52.7298 39.8974 53.0807 39.5159C53.5058 39.0534 53.6634 38.6526 53.6665 38.026C53.6712 37.0972 53.207 36.4536 51.8723 35.5378C50.6171 34.6766 50.2043 33.4987 50.5511 31.7688C51.0642 29.2099 50.2378 26.2083 48.3633 23.8232C46.0817 20.9199 42.4584 19.0463 37.95 18.4383C36.4386 18.2345 33.5777 18.1855 32.4299 18.3438ZM33.7148 20.943C30.7291 21.3821 27.9846 23.2923 26.6015 25.8936C25.4613 28.0381 25.2707 30.6157 26.084 32.8922C27.2888 36.2651 30.5052 38.6856 34.2215 39.0165C36.2504 39.1972 38.1797 38.7838 39.9717 37.7843C40.9279 37.251 42.473 35.8252 43.1063 34.8919C44.2698 33.1771 44.7657 31.2662 44.5924 29.1657C44.4152 27.019 43.4726 25.1066 41.8121 23.5251C40.5378 22.3114 39.0726 21.5217 37.3314 21.1103C36.4516 20.9025 34.5793 20.8158 33.7148 20.943ZM34.7958 24.0076C34.219 24.4674 33.9533 24.7978 33.5712 25.53C32.7207 27.1604 32.6879 28.9745 33.4741 30.9147C33.8186 31.7649 34.6577 32.8782 34.9877 32.9228C35.4725 32.9882 36.4843 31.7788 36.9522 30.5745C37.1747 30.0017 37.2241 29.71 37.2613 28.749C37.3141 27.3789 37.1244 26.5071 36.5217 25.3495C36.1242 24.5862 35.4558 23.7576 35.2375 23.7576C35.167 23.7576 34.9683 23.8702 34.7958 24.0076ZM29.4772 26.6234C29.2726 26.8589 29.2925 28.5293 29.5093 29.302C30.1294 31.5139 31.7594 33.1661 33.761 33.6121C34.4089 33.7564 34.4085 33.7743 33.7756 33.0302C33.2511 32.4136 32.6891 31.3072 32.413 30.3473C32.242 29.7529 32.2028 29.3691 32.1984 28.2454L32.193 26.8707L31.7642 26.7137C31.5283 26.6274 30.9489 26.5354 30.4765 26.5093C29.7316 26.468 29.599 26.4832 29.4772 26.6234ZM38.7997 26.6154C37.9543 26.838 37.9938 26.7533 38.0275 28.2731C38.0525 29.4009 38.0255 29.7385 37.8615 30.3473C37.5695 31.4311 37.007 32.4504 36.3312 33.1204C36.0148 33.4339 35.7723 33.706 35.7922 33.725C35.8121 33.7439 36.0582 33.7125 36.3392 33.6548C38.9621 33.1177 40.9005 30.5724 40.9005 27.6655C40.9005 26.5539 40.8377 26.4808 39.8936 26.4925C39.5314 26.497 39.039 26.5523 38.7997 26.6154ZM27.9315 29.7945C26.7653 30.2525 26.7086 30.3883 27.2521 31.4224C28.1034 33.0425 29.3808 34.1226 31.0424 34.6276C32.0035 34.9197 33.2416 34.9528 34.1002 34.7094L34.6665 34.5488L33.8657 34.3811C31.5539 33.8969 29.7273 32.2844 28.9616 30.0519C28.772 29.4991 28.7181 29.4856 27.9315 29.7945ZM41.3752 29.7338C41.373 30.0259 40.7401 31.2839 40.2967 31.8773C39.3536 33.1395 37.9107 34.0685 36.4028 34.3844L35.6183 34.5488L36.1892 34.7106C36.8405 34.8952 38.0255 34.9174 38.759 34.7587C39.0208 34.7021 39.5989 34.4886 40.0439 34.2843C41.4132 33.6554 42.7124 32.2543 43.2331 30.8448C43.3721 30.4688 43.3705 30.4617 43.1011 30.2241C42.8282 29.9833 41.8452 29.5747 41.5392 29.5747C41.448 29.5747 41.3759 29.6447 41.3752 29.7338Z" fill="white"/>
<defs>
<linearGradient id="paint0_linear_77_939" x1="37" y1="0" x2="37" y2="74" gradientUnits="userSpaceOnUse">
<stop stop-color="#067337"/>
<stop offset="1" stop-color="#00853C"/>
</linearGradient>
</defs>
</svg>
