<svg width="74" height="74" viewBox="0 0 74 74" fill="none" xmlns="http://www.w3.org/2000/svg">
<circle cx="37" cy="37" r="37" fill="url(#paint0_linear_77_935)"/>
<path fill-rule="evenodd" clip-rule="evenodd" d="M25.1055 18.4648C21.0164 19.366 17.8328 22.4337 16.6269 26.6342C16.1274 28.3746 16.0167 31.2025 16.383 32.8699C16.8536 35.0128 17.9303 37.3544 19.5282 39.7101C22.822 44.5655 29.1377 50.4862 35.7345 54.903L36.9997 55.75L38.1562 54.982C43.3621 51.525 49.6547 45.9459 52.7255 42.0644C56.2847 37.5661 57.8494 33.9764 57.8333 30.347C57.817 26.6841 56.6814 23.7582 54.3892 21.4722C53.1125 20.1992 51.7188 19.3418 49.9679 18.7522C48.806 18.3609 48.4495 18.3177 46.4161 18.3221C44.4074 18.3263 44.0122 18.3746 42.8643 18.757C41.0952 19.3461 39.7113 20.1925 38.2516 21.5784L37.0181 22.7493L35.88 21.6592C34.1228 19.976 32.2029 18.9492 29.8981 18.4603C28.5685 18.1781 26.3969 18.1802 25.1055 18.4648ZM33.1792 28.7585C31.964 29.7154 31.7815 32.0154 32.8027 33.5072C34.1733 35.5098 36.4902 34.3744 36.4863 31.7021C36.4849 30.6174 36.1651 29.8203 35.4405 29.095C34.6323 28.2859 33.915 28.1791 33.1792 28.7585ZM38.8925 28.7776C37.9931 29.384 37.5349 30.3862 37.5469 31.7208C37.5677 34.0155 39.0152 35.2132 40.5258 34.1855C41.2594 33.6864 41.7107 32.7392 41.787 31.538C41.8678 30.2711 41.6191 29.5226 40.9115 28.9006C40.2339 28.305 39.6463 28.2691 38.8925 28.7776ZM29.3838 32.7151C28.7325 32.9299 28.4083 33.1865 28.1802 33.6677C27.1276 35.8885 29.5331 39.3563 31.4412 38.3687C32.8106 37.6597 32.7276 34.7796 31.2999 33.466C30.9795 33.1712 29.8329 32.5772 29.6715 32.6225C29.6464 32.6294 29.517 32.6711 29.3838 32.7151ZM43.8998 32.7762C42.4239 33.1817 41.2536 35.2462 41.5631 36.8981C41.712 37.692 42.5791 38.5896 43.1972 38.5896C44.3738 38.5896 45.6451 37.25 46.0065 35.6288C46.4021 33.8561 45.3168 32.3868 43.8998 32.7762ZM35.735 35.9969C34.801 36.2196 34.153 36.7305 33.4651 37.7864C33.0904 38.3614 32.3434 39.4221 31.8053 40.1434C30.6853 41.6445 30.4336 42.301 30.6853 43.0647C31.0076 44.0417 32.3563 44.8892 33.5936 44.8918C33.8222 44.8923 34.5292 44.7109 35.1646 44.4887C35.7999 44.2665 36.6353 44.0847 37.0212 44.0847C37.4069 44.0847 38.2424 44.2665 38.8778 44.4887C40.3088 44.9892 40.8663 44.9931 41.9025 44.5102C42.7896 44.0966 43.2449 43.5442 43.3785 42.7191C43.4872 42.0497 43.1732 41.3751 42.1698 40.1216C41.7444 39.5902 41.1916 38.8007 40.9412 38.3674C40.1807 37.0507 39.4495 36.3562 38.5388 36.0855C37.675 35.8287 36.5847 35.7943 35.735 35.9969Z" fill="white"/>
<defs>
<linearGradient id="paint0_linear_77_935" x1="37" y1="0" x2="37" y2="74" gradientUnits="userSpaceOnUse">
<stop stop-color="#067337"/>
<stop offset="1" stop-color="#00853C"/>
</linearGradient>
</defs>
</svg>
