<svg width="46" height="46" viewBox="0 0 46 46" fill="none" xmlns="http://www.w3.org/2000/svg">
<rect width="46" height="46" rx="10" fill="white"/>
<g clip-path="url(#clip0_18_516)">
<path d="M34.535 28.5796C33.7572 31.01 31.3765 31.7051 30.2429 31.8997C30.0721 31.9288 29.8973 31.9232 29.7288 31.883C29.5602 31.8429 29.4016 31.7691 29.2623 31.6661C29.1246 31.5655 29.0089 31.4377 28.9225 31.2907C28.836 31.1436 28.7806 30.9804 28.7596 30.8111C28.3255 27.4147 25.3525 22.2856 24.2236 21.1606C23.7682 20.647 23.189 20.2585 22.541 20.0321C22.3795 19.9895 22.2341 19.9002 22.1231 19.7755C22.012 19.6507 21.9402 19.4959 21.9166 19.3306L21.7687 18.2969C21.0881 18.4297 20.3835 18.3637 19.7395 18.1066C19.4992 18.0121 19.2932 17.8472 19.1485 17.6335C19.0038 17.4198 18.9271 17.1672 18.9286 16.9091V14C18.9286 13.8863 18.9737 13.7773 19.0541 13.697C19.1345 13.6166 19.2435 13.5714 19.3572 13.5714C19.4708 13.5714 19.5798 13.6166 19.6602 13.697C19.7406 13.7773 19.7857 13.8863 19.7857 14V16.9091C19.7857 17.0849 19.892 17.2434 20.0545 17.3094C20.388 17.4604 20.7522 17.5312 21.118 17.5164C21.4839 17.5015 21.8411 17.4013 22.1613 17.2237C22.3888 17.0478 22.5678 16.817 22.6818 16.553C22.7957 16.289 22.8408 16.0005 22.8127 15.7143C22.8127 13.247 21.587 11 20.2413 11C19.031 11.0711 17.8336 11.2914 16.6769 11.6549C16.388 11.7397 16.1382 11.9236 15.9715 12.1743L14.9652 13.6863C14.6699 14.1301 14.2194 14.4476 13.7022 14.5764L12.9286 14.7714V15.7143C12.9286 15.9416 12.8383 16.1596 12.6775 16.3204C12.5168 16.4811 12.2988 16.5714 12.0715 16.5714H11.3965C11.5111 16.9672 11.7192 17.3295 12.0034 17.6279C12.2875 17.9263 12.6392 18.1519 13.0289 18.2857C14.378 18.3041 15.7152 18.5416 16.988 18.989C17.2057 19.076 17.378 19.2483 17.4663 19.4656C17.5092 19.5718 17.5299 19.6857 17.5271 19.8003C17.5243 19.9148 17.4981 20.0276 17.45 20.1316L17.3407 20.3686C16.7051 21.5771 16.3679 22.9202 16.3572 24.2857C16.3945 25.7606 16.9583 27.1735 17.9467 28.2689C18.0267 28.3492 18.0715 28.458 18.0715 28.5714V33.7143C18.0714 33.8096 18.0396 33.9021 17.9811 33.9774C17.9226 34.0526 17.8407 34.1061 17.7483 34.1296C17.738 34.1326 16.8055 34.382 16.4887 35H19.0885C19.2824 34.6048 19.5634 34.2587 19.9103 33.9878C20.2573 33.7168 20.6612 33.5281 21.0916 33.4357C20.7988 33.1321 20.5702 32.7726 20.4195 32.3786C20.2687 31.9847 20.199 31.5644 20.2143 31.1429C20.2043 30.4823 20.3484 29.8286 20.6351 29.2334C20.9218 28.6383 21.3432 28.1181 21.866 27.7143C22.3261 27.3922 22.8577 27.1869 23.4148 27.1161C23.972 27.0453 24.538 27.1112 25.064 27.308C25.172 27.3439 25.2613 27.4213 25.3123 27.523C25.3632 27.6248 25.3717 27.7426 25.3357 27.8506C25.2998 27.9586 25.2225 28.0478 25.1207 28.0988C25.019 28.1498 24.9011 28.1582 24.7932 28.1223C24.3962 27.9676 23.9672 27.9129 23.5441 27.9631C23.121 28.0134 22.7168 28.1669 22.367 28.4103C21.9539 28.734 21.6218 29.1495 21.3969 29.6238C21.1721 30.098 21.0606 30.6181 21.0715 31.1429C21.0715 32.9304 22.4472 33.2951 22.4609 33.2986C22.5623 33.324 22.6509 33.3856 22.71 33.4718C22.7692 33.558 22.7948 33.6628 22.7821 33.7665C22.7693 33.8703 22.7191 33.9658 22.6408 34.0351C22.5626 34.1044 22.4617 34.1427 22.3572 34.1429C21.0715 34.1429 20.4183 34.6079 20.0947 35H25.7857C26.0131 35 26.2311 34.9097 26.3918 34.7489C26.5526 34.5882 26.6429 34.3702 26.6429 34.1429C26.6429 34.0292 26.688 33.9202 26.7684 33.8398C26.8488 33.7594 26.9578 33.7143 27.0715 33.7143C27.1851 33.7143 27.2941 33.7594 27.3745 33.8398C27.4549 33.9202 27.5 34.0292 27.5 34.1429C27.4982 34.4447 27.416 34.7406 27.2617 35H27.9286C28.4108 34.9813 28.8709 34.7924 29.2272 34.4669C29.2505 34.3743 29.304 34.2921 29.3793 34.2334C29.4546 34.1747 29.5474 34.1428 29.6429 34.1429C33.1516 34.1429 34.7857 31.841 34.7857 30.2857C34.7764 29.7085 34.6921 29.135 34.535 28.5796ZM23.9459 22.8744C23.8655 22.9548 23.7565 22.9999 23.6429 22.9999C23.5292 22.9999 23.4202 22.9548 23.3399 22.8744L22.4827 22.0173C22.4047 21.9365 22.3615 21.8282 22.3624 21.7158C22.3634 21.6035 22.4085 21.496 22.488 21.4165C22.5674 21.337 22.6749 21.292 22.7873 21.291C22.8996 21.29 23.0079 21.3332 23.0887 21.4113L23.9459 22.2684C24.0262 22.3488 24.0714 22.4578 24.0714 22.5714C24.0714 22.6851 24.0262 22.7941 23.9459 22.8744ZM12.0715 14.9857L11.2169 15.2C11.2113 15.3714 11.216 15.5429 11.2302 15.7143H12.0715V14.9857ZM26.7067 13.8461C28.3392 14.5338 29.7325 15.6878 30.7122 17.1636C31.6918 18.6394 32.2144 20.3715 32.2143 22.1429C32.2143 22.2565 32.2595 22.3655 32.3398 22.4459C32.4202 22.5263 32.5292 22.5714 32.6429 22.5714C32.7565 22.5714 32.8656 22.5263 32.9459 22.4459C33.0263 22.3655 33.0715 22.2565 33.0715 22.1429C33.0719 20.2032 32.5 18.3065 31.4274 16.6903C30.3549 15.0741 28.8294 13.8103 27.0419 13.0571C26.9372 13.0127 26.8191 13.0117 26.7137 13.0543C26.6082 13.0969 26.524 13.1796 26.4796 13.2843C26.4352 13.389 26.4341 13.507 26.4767 13.6125C26.5193 13.7179 26.6021 13.8021 26.7067 13.8466V13.8461Z" fill="#00853C"/>
<path d="M25.9182 15.3796C27.2732 15.9157 28.4353 16.8478 29.2526 18.0543C30.07 19.2607 30.5047 20.6856 30.5 22.1429C30.5 22.2565 30.5452 22.3655 30.6255 22.4459C30.7059 22.5263 30.8149 22.5714 30.9286 22.5714C31.0422 22.5714 31.1513 22.5263 31.2316 22.4459C31.312 22.3655 31.3572 22.2565 31.3572 22.1429C31.3622 20.5141 30.8763 18.9216 29.9628 17.5731C29.0493 16.2246 27.7506 15.1827 26.2362 14.5833C26.1839 14.5624 26.128 14.552 26.0717 14.5527C26.0154 14.5535 25.9598 14.5653 25.9081 14.5875C25.8563 14.6097 25.8095 14.6419 25.7702 14.6822C25.7309 14.7225 25.6999 14.7701 25.679 14.8224C25.6581 14.8747 25.6478 14.9306 25.6485 14.9869C25.6492 15.0432 25.661 15.0988 25.6832 15.1505C25.7054 15.2023 25.7376 15.2491 25.7779 15.2884C25.8182 15.3277 25.8659 15.3587 25.9182 15.3796Z" fill="#00853C"/>
<path d="M25.143 16.9143C26.2097 17.3122 27.1298 18.0258 27.7806 18.9599C28.4314 19.894 28.7821 21.0044 28.7858 22.1429C28.7858 22.2565 28.831 22.3655 28.9114 22.4459C28.9917 22.5263 29.1007 22.5714 29.2144 22.5714C29.3281 22.5714 29.4371 22.5263 29.5175 22.4459C29.5978 22.3655 29.643 22.2565 29.643 22.1429C29.6391 20.827 29.2334 19.5437 28.4802 18.4647C27.727 17.3857 26.6623 16.5624 25.4284 16.1051C25.3753 16.0864 25.319 16.0783 25.2627 16.0813C25.2065 16.0843 25.1514 16.0984 25.1005 16.1227C25.0497 16.147 25.0042 16.1811 24.9665 16.223C24.9289 16.265 24.8999 16.3139 24.8811 16.367C24.8624 16.4201 24.8543 16.4764 24.8573 16.5327C24.8603 16.5889 24.8744 16.6441 24.8987 16.6949C24.923 16.7457 24.9571 16.7912 24.999 16.8289C25.0409 16.8665 25.0899 16.8955 25.143 16.9143Z" fill="#00853C"/>
<path d="M24.3484 18.4571C25.1382 18.6972 25.8296 19.1853 26.3201 19.8492C26.8106 20.5131 27.0741 21.3174 27.0715 22.1429C27.0715 22.2565 27.1167 22.3655 27.1971 22.4459C27.2774 22.5263 27.3864 22.5714 27.5001 22.5714C27.6138 22.5714 27.7228 22.5263 27.8032 22.4459C27.8835 22.3655 27.9287 22.2565 27.9287 22.1429C27.9322 21.1337 27.6104 20.1503 27.011 19.3384C26.4115 18.5266 25.5663 17.9296 24.6008 17.636C24.547 17.6194 24.4905 17.6136 24.4344 17.6189C24.3784 17.6242 24.3239 17.6404 24.2741 17.6668C24.1736 17.7199 24.0984 17.8108 24.0649 17.9195C24.0314 18.0282 24.0425 18.1457 24.0957 18.2462C24.1488 18.3467 24.2397 18.422 24.3484 18.4554V18.4571Z" fill="#00853C"/>
</g>
<defs>
<clipPath id="clip0_18_516">
<rect width="24" height="24" fill="white" transform="translate(11 11)"/>
</clipPath>
</defs>
</svg>
