<svg width="74" height="74" viewBox="0 0 74 74" fill="none" xmlns="http://www.w3.org/2000/svg">
<circle cx="37" cy="37" r="37" fill="url(#paint0_linear_48_1942)"/>
<path d="M43.7814 26.3298C40.9629 26.9349 38.1855 25.1382 37.5813 22.3179C36.9775 19.4972 38.7729 16.7225 41.5932 16.1169C44.4126 15.5127 47.1886 17.3095 47.7941 20.1284C48.3988 22.9487 46.6021 25.726 43.7814 26.3298ZM15.8366 48.9866L18.1844 48.0551L22.0486 41.2468L27.0053 37.6078L29.2421 38.9073L31.5449 38.0691C31.6984 37.6992 31.9581 37.383 32.2912 37.1606C32.6243 36.9382 33.0158 36.8195 33.4164 36.8195C38.1214 36.8195 40.8563 33.4614 41.0854 30.2492C41.242 28.629 42.5159 27.2919 43.849 26.6461C43.849 26.6461 44.3537 26.3701 44.9279 26.2599C45.4768 26.1551 46.1146 26.1515 46.1146 26.1515L46.1301 26.1507C47.9383 26.2024 50.0664 27.2109 50.5175 29.3115L52.9318 40.5829C53.0683 41.2152 53.0276 41.8729 52.8141 42.4835C52.7845 42.5959 50.28 48.7831 50.28 48.7831H55.9537C56.687 48.7831 57.3903 49.0744 57.9089 49.593C58.4274 50.1115 58.7187 50.8148 58.7187 51.5481C58.7187 52.2814 58.4274 52.9847 57.9089 53.5032C57.3903 54.0218 56.687 54.3131 55.9537 54.3131H46.1739C45.7207 54.3132 45.2744 54.202 44.8744 53.9891C44.4743 53.7762 44.1327 53.4683 43.8796 53.0923C43.6265 52.7164 43.4697 52.284 43.4231 51.8332C43.3764 51.3825 43.4413 50.9271 43.612 50.5073L45.1667 46.683L41.8033 47.6446L43.0697 54.6032C43.1422 55.002 43.1262 55.4119 43.0228 55.8038C42.9194 56.1958 42.7311 56.5602 42.4713 56.8713C42.2115 57.1825 41.8865 57.4327 41.5193 57.6043C41.1521 57.7759 40.7516 57.8648 40.3463 57.8645C39.6995 57.8633 39.0736 57.6355 38.5772 57.2208C38.0808 56.8062 37.7454 56.2307 37.6291 55.5945L35.9137 46.1707C35.7907 45.4956 35.9231 44.7987 36.2854 44.2158C36.6477 43.6329 37.2138 43.2056 37.8737 43.017L43.3196 41.46L42.4345 37.3269C40.4361 39.6597 37.4057 40.8748 33.4172 40.8748C32.9454 40.8731 32.4893 40.7054 32.1287 40.4011L30.2051 41.1013L24.9286 51.192L25.1537 56.6269C25.1667 56.9436 25.0534 57.2524 24.8387 57.4857C24.6241 57.7189 24.3257 57.8574 24.009 57.8707C23.9917 57.8716 23.9758 57.8716 23.9586 57.8716C23.6503 57.8715 23.354 57.7522 23.1317 57.5387C22.9093 57.3252 22.7782 57.034 22.7656 56.726L22.6214 53.2541L22.0499 56.986C22.0262 57.1412 21.9721 57.2901 21.8908 57.4244C21.8094 57.5586 21.7025 57.6755 21.5759 57.7684C21.4494 57.8612 21.3059 57.9283 21.1534 57.9656C21.001 58.003 20.8427 58.01 20.6876 57.9861C20.3743 57.9381 20.0929 57.7676 19.9053 57.5121C19.7176 57.2566 19.6391 56.9371 19.687 56.6238L20.6212 50.5277L19.02 49.6173L16.4864 50.6228C16.2693 50.7087 16.027 50.7049 15.8128 50.6124C15.5985 50.5198 15.4297 50.346 15.3434 50.1291C15.3007 50.0217 15.2796 49.907 15.2813 49.7914C15.283 49.6759 15.3075 49.5618 15.3533 49.4557C15.3991 49.3496 15.4653 49.2535 15.5483 49.1731C15.6312 49.0926 15.7292 49.0292 15.8366 48.9866ZM26.5245 35.0741C26.3692 35.221 26.2126 35.3687 26.0547 35.5156C25.9419 35.6208 26.5846 37.1155 26.5846 37.1155L21.7575 40.6076C21.4317 40.0974 21.1063 39.587 20.7813 39.0763C20.0652 37.9563 19.3827 36.8129 18.5401 35.7814C18.3053 35.5005 18.0407 35.246 17.751 35.0224C16.4311 33.9904 17.2516 33.2796 17.4639 33.1558C17.9929 32.8439 18.5768 32.9028 19.1222 33.1903C19.426 33.3517 19.7268 33.5185 20.0281 33.6866C20.1165 33.7357 20.1837 33.7326 20.2673 33.6675C20.4085 33.5605 20.5628 33.4676 20.7132 33.3752C21.5837 32.8461 22.4299 32.9408 23.361 32.5365C23.6764 32.4003 25.6429 30.1457 26.6859 30.6956C27.8232 31.2945 27.905 32.5418 27.5401 33.5468C27.326 34.1391 26.9827 34.6446 26.5245 35.0741Z" fill="white"/>
<defs>
<linearGradient id="paint0_linear_48_1942" x1="37" y1="0" x2="37" y2="74" gradientUnits="userSpaceOnUse">
<stop stop-color="#067337"/>
<stop offset="1" stop-color="#00853C"/>
</linearGradient>
</defs>
</svg>
