<svg width="36" height="36" viewBox="0 0 36 36" fill="none" xmlns="http://www.w3.org/2000/svg">
<rect width="36" height="36" rx="18" fill="#03853C" fill-opacity="0.1"/>
<path d="M20.1689 10H10.4969C9.61143 10 8.89673 10.7147 8.89673 11.6002V18.0008C8.89673 18.8861 9.61143 19.6009 10.4969 19.6009H11.0303V21.2011C11.0303 21.5864 11.4293 21.8655 11.8197 21.6704C11.8303 21.6598 11.8517 21.6598 11.8624 21.6491C14.7966 19.6814 14.139 20.1201 14.796 19.6862C14.8813 19.6329 14.9773 19.6009 15.084 19.6009H20.1689C21.0544 19.6009 21.7691 18.8861 21.7691 18.0008V11.6002C21.7691 10.7147 21.0544 10 20.1689 10ZM15.9018 16.4006H11.5636C10.8605 16.4006 10.8577 15.3338 11.5636 15.3338H15.9018C16.6049 15.3338 16.6078 16.4006 15.9018 16.4006ZM19.1021 14.2671H11.5636C10.8605 14.2671 10.8577 13.2003 11.5636 13.2003H19.1021C19.8053 13.2003 19.8081 14.2671 19.1021 14.2671Z" fill="#03853C"/>
<path d="M25.5031 14.2671H22.8362V18.0008C22.8362 19.4729 21.6414 20.6677 20.1693 20.6677H15.2444L14.231 21.3398V22.2679C14.231 23.1532 14.9457 23.868 15.8311 23.868H21.076L24.1376 25.9162C24.5555 26.1482 24.9698 25.866 24.9698 25.4682V23.868H25.5031C26.3886 23.868 27.1033 23.1532 27.1033 22.2679V15.8672C27.1033 14.9818 26.3886 14.2671 25.5031 14.2671Z" fill="#03853C"/>
</svg>
