<svg width="24" height="24" viewBox="0 0 24 24" fill="none" xmlns="http://www.w3.org/2000/svg">
<path d="M10.9379 1.93127C8.55344 1.93527 6.26777 2.88426 4.5817 4.57034C2.89562 6.25642 1.94662 8.54208 1.94263 10.9265C1.94462 13.313 2.89249 15.6014 4.57857 17.2903C6.26465 18.9792 8.55143 19.9309 10.9379 19.9369C13.0544 19.9369 15.0047 19.1924 16.5467 17.9602L20.2922 21.7058C20.482 21.8822 20.7327 21.9782 20.9918 21.9737C21.2508 21.9691 21.4981 21.8644 21.6815 21.6814C21.865 21.4985 21.9704 21.2515 21.9756 20.9925C21.9808 20.7334 21.8855 20.4824 21.7096 20.2922L17.964 16.5429C19.2433 14.952 19.9407 12.9718 19.9407 10.9303C19.9407 5.97158 15.8966 1.93127 10.9379 1.93127ZM10.9379 3.93442C14.8157 3.93442 17.9376 7.05253 17.9376 10.9265C17.9376 14.8006 14.8157 17.9376 10.9379 17.9376C7.06011 17.9376 3.942 14.8119 3.942 10.9341C3.942 7.05631 7.06011 3.93442 10.9379 3.93442Z" fill="white"/>
</svg>
