<svg width="20" height="20" viewBox="0 0 20 20" fill="none" xmlns="http://www.w3.org/2000/svg">
<g clip-path="url(#clip0_3076_970)">
<path d="M10.0007 0.833496C8.18766 0.833496 6.41538 1.37111 4.90793 2.37836C3.40048 3.3856 2.22556 4.81724 1.53176 6.49223C0.837956 8.16722 0.656426 10.0103 1.01012 11.7885C1.36382 13.5666 2.23686 15.2 3.51884 16.482C4.80082 17.764 6.43417 18.637 8.21233 18.9907C9.99049 19.3444 11.8336 19.1629 13.5086 18.4691C15.1836 17.7753 16.6152 16.6003 17.6225 15.0929C18.6297 13.5854 19.1673 11.8132 19.1673 10.0002C19.1645 7.56989 18.1978 5.23998 16.4793 3.52152C14.7608 1.80306 12.4309 0.836363 10.0007 0.833496ZM13.0898 13.0893C12.9335 13.2456 12.7216 13.3333 12.5007 13.3333C12.2797 13.3333 12.0678 13.2456 11.9115 13.0893L9.41149 10.5893C9.2552 10.4331 9.16737 10.2212 9.16732 10.0002V5.00016C9.16732 4.77915 9.25512 4.56719 9.4114 4.41091C9.56768 4.25463 9.77964 4.16683 10.0007 4.16683C10.2217 4.16683 10.4336 4.25463 10.5899 4.41091C10.7462 4.56719 10.834 4.77915 10.834 5.00016V9.65516L13.0898 11.911C13.246 12.0673 13.3338 12.2792 13.3338 12.5002C13.3338 12.7211 13.246 12.9331 13.0898 13.0893Z" fill="white"/>
</g>
<defs>
<clipPath id="clip0_3076_970">
<rect width="20" height="20" fill="white"/>
</clipPath>
</defs>
</svg>
