<svg width="74" height="74" viewBox="0 0 74 74" fill="none" xmlns="http://www.w3.org/2000/svg">
<circle cx="37" cy="37" r="37" fill="url(#paint0_linear_77_930)"/>
<path d="M27.2772 37.3382L26.0356 38.5034C25.507 38.9995 25.1527 39.6179 24.9864 40.2796H16.6012C16.469 40.2796 16.3551 40.2269 16.2694 40.1261C16.1838 40.0253 16.1501 39.9045 16.1715 39.7739C16.8839 35.423 20.6607 32.1027 25.2131 32.1027C26.7046 32.1027 28.1129 32.4592 29.3573 33.0915C28.6492 33.5923 28.1278 34.3445 27.9171 35.2446L27.5287 36.9023C27.4853 37.0878 27.4161 37.2078 27.2772 37.3382ZM57.8272 39.7739C57.1147 35.423 53.3381 32.1028 48.7857 32.1028C47.2942 32.1028 45.886 32.4593 44.6414 33.0915C45.3496 33.5924 45.8709 34.3446 46.0817 35.2446L46.47 36.9023C46.5135 37.0878 46.5828 37.2078 46.7217 37.3381L47.9632 38.5033C48.4917 38.9994 48.846 39.6178 49.0123 40.2795H57.3975C57.4608 40.2798 57.5233 40.2663 57.5807 40.2399C57.6381 40.2135 57.6891 40.1749 57.73 40.1267C57.771 40.0785 57.8009 40.022 57.8177 39.9611C57.8345 39.9001 57.8377 39.8362 57.8272 39.7739ZM36.9995 26.5331C39.9997 26.5331 42.4318 24.101 42.4318 21.1008C42.4318 18.1006 39.9997 15.6685 36.9995 15.6685C33.9993 15.6685 31.5672 18.1006 31.5672 21.1008C31.5672 24.101 33.9993 26.5331 36.9995 26.5331ZM44.2222 51.0323C44.0996 51.099 44.0139 51.182 43.9294 51.3111L42.9974 52.7361C42.2136 53.9345 40.8425 54.5462 39.4627 54.3608L41.2572 58.2151C41.326 58.3629 41.5321 58.3722 41.614 58.2313L43.1715 55.5512L46.225 56.0847C46.3858 56.1128 46.5113 55.9491 46.4423 55.8012L44.2222 51.0323ZM40.0902 41.2587L38.3765 41.262C38.1792 41.2623 38.0114 41.1404 37.9507 40.9526L37.4243 39.3218C37.2921 38.9124 36.7068 38.9125 36.5746 39.3218L36.0482 40.9527C35.9876 41.1405 35.8197 41.2624 35.6225 41.262L33.9087 41.2587C33.476 41.2579 33.2956 41.8131 33.6461 42.0668L35.0345 43.0715C35.1943 43.1872 35.2584 43.3844 35.1971 43.572L34.6644 45.2008C34.5301 45.6115 35.0028 45.9549 35.3519 45.7002L36.7365 44.6903C36.8959 44.574 37.1033 44.574 37.2626 44.6903L38.6472 45.7002C38.9963 45.9548 39.4689 45.6115 39.3347 45.2008L38.802 43.572C38.7406 43.3844 38.8047 43.1872 38.9645 43.0715L40.3529 42.0668C40.7034 41.8132 40.523 41.2579 40.0902 41.2587ZM47.0101 39.519C47.7535 40.2166 47.9409 41.2795 47.481 42.1893C46.2835 44.5582 46.3726 44.0532 46.6876 46.6887C46.8086 47.7011 46.269 48.6356 45.3318 49.037C42.8918 50.0819 43.2847 49.7524 41.8319 51.9737C41.2738 52.827 40.2598 53.1961 39.2838 52.9012C36.743 52.1333 37.2558 52.1332 34.715 52.9012C33.7392 53.1961 32.725 52.827 32.167 51.9737C30.7142 49.7524 31.107 50.0819 28.6671 49.037C27.7299 48.6356 27.1903 47.7011 27.3112 46.6887C27.6263 44.0532 27.7154 44.5582 26.5179 42.1893C26.058 41.2795 26.2454 40.2166 26.9887 39.519C28.9242 37.7025 28.6678 38.1466 29.2731 35.5623C29.5056 34.5696 30.3324 33.8759 31.3503 33.8193C34.0005 33.6719 33.5186 33.8472 35.6436 32.2567C36.4598 31.6457 37.539 31.6457 38.3552 32.2567C40.4801 33.8472 39.9982 33.6719 42.6485 33.8193C43.6664 33.8759 44.4932 34.5696 44.7256 35.5623C45.3311 38.1466 45.0748 37.7026 47.0101 39.519ZM42.9486 42.4C42.9486 39.1145 40.2851 36.451 36.9994 36.451C33.7138 36.451 31.0504 39.1145 31.0504 42.4C31.0504 45.6856 33.7138 48.3492 36.9994 48.3492C40.285 48.3492 42.9486 45.6856 42.9486 42.4ZM30.0695 51.3111C29.985 51.182 29.8992 51.099 29.7767 51.0323L27.5565 55.8011C27.4876 55.9491 27.613 56.1127 27.7738 56.0846L30.8275 55.5511L32.3849 58.2312C32.4669 58.3721 32.673 58.3628 32.7417 58.215L34.5361 54.3607C32.0972 54.6886 31.182 53.0124 30.0695 51.3111ZM48.7858 31.2321C51.3443 31.2321 53.4185 29.1579 53.4185 26.5994C53.4185 24.0408 51.3443 21.9667 48.7858 21.9667C46.2272 21.9667 44.1531 24.0409 44.1531 26.5994C44.153 29.1579 46.2271 31.2321 48.7858 31.2321ZM28.715 31.3073C29.527 31.5933 30.3009 31.9776 31.0195 32.4515C31.6256 32.3768 33.0428 32.4639 33.446 32.162L34.8092 31.1418C36.12 30.1606 37.8792 30.1606 39.19 31.1418L40.5531 32.162C40.9566 32.4641 42.3732 32.3766 42.9795 32.4515C43.6982 31.9776 44.4721 31.5934 45.284 31.3073C43.3134 28.9233 40.3341 27.4038 36.9996 27.4038C33.6648 27.4038 30.6855 28.9232 28.715 31.3073ZM25.2133 31.2321C27.7718 31.2321 29.846 29.1579 29.846 26.5994C29.846 24.0408 27.7717 21.9667 25.2133 21.9667C22.6547 21.9667 20.5805 24.0409 20.5805 26.5994C20.5805 29.1579 22.6547 31.2321 25.2133 31.2321Z" fill="white"/>
<defs>
<linearGradient id="paint0_linear_77_930" x1="37" y1="0" x2="37" y2="74" gradientUnits="userSpaceOnUse">
<stop stop-color="#067337"/>
<stop offset="1" stop-color="#00853C"/>
</linearGradient>
</defs>
</svg>
