<svg width="74" height="74" viewBox="0 0 74 74" fill="none" xmlns="http://www.w3.org/2000/svg">
<circle cx="37" cy="37" r="37" fill="url(#paint0_linear_77_924)"/>
<path d="M37.0001 25.1186C39.4721 25.1186 41.476 23.1146 41.476 20.6427C41.476 18.1707 39.4721 16.1667 37.0001 16.1667C34.5281 16.1667 32.5242 18.1707 32.5242 20.6427C32.5242 23.1146 34.5281 25.1186 37.0001 25.1186Z" fill="white"/>
<path d="M28.951 49.9367C27.6876 51.2892 25.8904 52.1371 23.8979 52.1371C21.9054 52.1371 20.1082 51.2892 18.8447 49.9367C17.2297 51.0359 16.1667 52.8888 16.1667 54.9854V56.613C16.1667 57.2872 16.7133 57.8337 17.3875 57.8337H30.4083C31.0824 57.8337 31.629 57.2872 31.629 56.613V54.9854C31.629 52.8888 30.5661 51.0359 28.951 49.9367ZM55.1554 49.9367C53.892 51.2892 52.0948 52.1371 50.1023 52.1371C48.1098 52.1371 46.3126 51.2892 45.0492 49.9367C43.4341 51.0359 42.3712 52.8888 42.3712 54.9854V56.613C42.3712 57.2872 42.9177 57.8337 43.5919 57.8337H56.6127C57.2869 57.8337 57.8334 57.2872 57.8334 56.613V54.9854C57.8334 52.8888 56.7705 51.0359 55.1554 49.9367ZM45.6851 45.94C46.0307 48.0667 47.8795 49.6957 50.1023 49.6957C52.5703 49.6957 54.5782 47.6878 54.5782 45.2198C54.5782 42.7518 52.5703 40.7439 50.1023 40.7439C48.2528 40.7439 46.6618 41.8715 45.9805 43.4753L40.6586 41.8226C40.5999 40.293 39.599 39.0013 38.2208 38.5125V33.2569H43.5105C44.1847 33.2569 44.7312 32.7104 44.7312 32.0362V30.4086C44.7312 28.3119 43.6683 26.4591 42.0532 25.3599C40.7898 26.7124 38.9926 27.5603 37.0001 27.5603C35.0076 27.5603 33.2104 26.7124 31.9469 25.3599C30.3319 26.4591 29.269 28.3119 29.269 30.4086V32.0362C29.269 32.7104 29.8155 33.2569 30.4897 33.2569H35.7794V38.5125C34.4011 39.0013 33.4003 40.2929 33.3416 41.8226L28.0197 43.4753C27.3384 41.8715 25.7473 40.7439 23.8979 40.7439C21.4299 40.7439 19.422 42.7518 19.422 45.2198C19.422 47.6878 21.4299 49.6957 23.8979 49.6957C26.1207 49.6957 27.9695 48.0667 28.315 45.94L34.0662 44.154C34.7345 45.0474 35.8009 45.6267 37.0001 45.6267C38.1992 45.6267 39.2656 45.0474 39.934 44.1539L45.6851 45.94Z" fill="white"/>
<defs>
<linearGradient id="paint0_linear_77_924" x1="37" y1="0" x2="37" y2="74" gradientUnits="userSpaceOnUse">
<stop stop-color="#067337"/>
<stop offset="1" stop-color="#00853C"/>
</linearGradient>
</defs>
</svg>
