<svg width="24" height="24" viewBox="0 0 24 24" fill="none" xmlns="http://www.w3.org/2000/svg">
<path d="M21.1871 10.0072C20.8623 9.81843 20.5705 9.57794 20.3231 9.29524C20.3481 8.90166 20.4418 8.51549 20.6001 8.15424C20.8911 7.33324 21.2201 6.40324 20.6921 5.68024C20.1641 4.95724 19.1671 4.98024 18.2921 5.00024C17.9054 5.04002 17.5148 5.01365 17.1371 4.92224C16.9358 4.59475 16.7921 4.23523 16.7121 3.85924C16.4641 3.01424 16.1811 2.05924 15.3121 1.77324C14.4741 1.50324 13.6981 2.09724 13.0121 2.61924C12.7161 2.88956 12.3731 3.10342 12.0001 3.25024C11.6232 3.10462 11.2764 2.8907 10.9771 2.61924C10.2931 2.10024 9.52007 1.50024 8.67807 1.77424C7.81107 2.05624 7.52807 3.01424 7.27807 3.85924C7.1982 4.23401 7.05588 4.59267 6.85707 4.92024C6.47859 5.0114 6.0875 5.03844 5.70007 5.00024C4.82207 4.97624 3.83307 4.95024 3.30007 5.68024C2.76707 6.41024 3.10007 7.33324 3.39207 8.15324C3.55251 8.51395 3.64765 8.90028 3.67307 9.29424C3.42615 9.57732 3.13464 9.81816 2.81007 10.0072C2.07807 10.5072 1.24707 11.0762 1.24707 12.0002C1.24707 12.9242 2.07807 13.4912 2.81007 13.9932C3.13457 14.182 3.42607 14.4225 3.67307 14.7052C3.65033 15.0991 3.55789 15.4857 3.40007 15.8472C3.11007 16.6672 2.78207 17.5972 3.30907 18.3202C3.83607 19.0432 4.83007 19.0202 5.70907 19.0002C6.09604 18.9604 6.48696 18.9868 6.86507 19.0782C7.06545 19.4061 7.20881 19.7655 7.28907 20.1412C7.53707 20.9862 7.82007 21.9412 8.68907 22.2272C8.82839 22.2719 8.97376 22.2949 9.12007 22.2952C9.82328 22.1943 10.4769 21.8745 10.9881 21.3812C11.2841 21.1109 11.6271 20.8971 12.0001 20.7502C12.377 20.8959 12.7238 21.1098 13.0231 21.3812C13.7081 21.9042 14.4841 22.5012 15.3231 22.2262C16.1901 21.9442 16.4731 20.9862 16.7231 20.1422C16.8032 19.7668 16.9466 19.4077 17.1471 19.0802C17.5241 18.9885 17.914 18.9614 18.3001 19.0002C19.1781 19.0212 20.1671 19.0502 20.7001 18.3202C21.2331 17.5902 20.9001 16.6672 20.6081 15.8462C20.4487 15.4859 20.3536 15.1004 20.3271 14.7072C20.5741 14.4239 20.866 14.183 21.1911 13.9942C21.9231 13.4942 22.7541 12.9242 22.7541 12.0002C22.7541 11.0762 21.9201 10.5082 21.1871 10.0072Z" fill="#01823B"/>
<path d="M10.9998 14.75C10.9013 14.7502 10.8038 14.7308 10.7128 14.6931C10.6218 14.6553 10.5393 14.5999 10.4698 14.53L8.46985 12.53C8.33737 12.3878 8.26524 12.1998 8.26867 12.0055C8.2721 11.8112 8.35081 11.6258 8.48823 11.4884C8.62564 11.351 8.81102 11.2723 9.00532 11.2688C9.19963 11.2654 9.38767 11.3375 9.52985 11.47L11.0698 13.01L14.5498 10.4C14.709 10.2807 14.909 10.2294 15.1059 10.2575C15.3028 10.2857 15.4805 10.3909 15.5998 10.55C15.7192 10.7091 15.7704 10.9092 15.7423 11.1061C15.7142 11.303 15.609 11.4807 15.4498 11.6L11.4498 14.6C11.32 14.6973 11.1621 14.7499 10.9998 14.75Z" fill="white"/>
</svg>
