<svg width="74" height="74" viewBox="0 0 74 74" fill="none" xmlns="http://www.w3.org/2000/svg">
<circle cx="37" cy="37" r="37" fill="url(#paint0_linear_48_1926)"/>
<path d="M19.3906 56.0493V58.6523C19.3906 59.3966 19.994 60 20.7383 60H29.7227C30.4669 60 31.0703 59.3966 31.0703 58.6523V56.0492H19.3906V56.0493ZM30.0142 45.01L26.3868 39.8296C25.4425 38.4808 23.6077 38.0529 22.2097 38.8554C21.791 39.0962 21.4344 39.4314 21.1682 39.8343C21.1673 39.8327 21.1664 39.8311 21.1655 39.8295C20.4636 40.8771 20.4338 42.2926 21.1994 43.3859L22.7469 45.596C23.1739 46.2057 23.0257 47.046 22.416 47.4729C21.8063 47.8998 20.966 47.7517 20.5391 47.1419L18.9916 44.9319C18.0977 43.6551 17.7546 42.1055 18.0257 40.5684C18.2875 39.0837 19.0929 37.7853 20.2979 36.8928C20.2923 36.7875 20.2894 36.682 20.2891 36.5766V28.1646C20.2891 26.4475 18.937 25.0025 17.2204 24.9619C15.452 24.9201 14 26.3464 14 28.1055V40.4955C14 40.678 14.037 40.8586 14.1089 41.0263L19.3906 53.354H31.0703V48.3596C31.0703 47.1549 30.7052 45.9967 30.0142 45.01ZM54.6094 56.0493V58.6523C54.6094 59.3966 54.006 60 53.2617 60H44.2773C43.5331 60 42.9297 59.3966 42.9297 58.6523V56.0492H54.6094V56.0493ZM43.9858 45.01L47.6131 39.8296C48.5575 38.4808 50.3923 38.0529 51.7903 38.8554C52.209 39.0962 52.5656 39.4314 52.8318 39.8343L52.8345 39.8295C53.5364 40.8771 53.5662 42.2926 52.8006 43.3859L51.2531 45.596C50.8261 46.2057 50.9743 47.046 51.584 47.4729C52.1937 47.8998 53.034 47.7517 53.4609 47.1419L55.0084 44.9319C55.9023 43.6551 56.2454 42.1055 55.9743 40.5684C55.7125 39.0837 54.9071 37.7853 53.7021 36.8928C53.7077 36.7875 53.7106 36.682 53.7109 36.5765V28.1645C53.7109 26.4474 55.063 25.0024 56.7796 24.9618C58.548 24.9201 60 26.3464 60 28.1055V40.4955C60 40.678 59.963 40.8586 59.8911 41.0263L54.6094 53.354H42.9297V48.3596C42.9297 47.1549 43.2949 45.9967 43.9858 45.01ZM35.6523 29.2734H38.3477V36.4609H35.6523V29.2734Z" fill="white"/>
<path d="M49.5751 24.7224L37.8954 14.3404C37.6487 14.1211 37.3301 13.9999 37 13.9999C36.6699 13.9999 36.3513 14.1211 36.1046 14.3404L24.4249 24.7224C23.8687 25.2168 23.8186 26.0687 24.3131 26.6249C24.8075 27.1812 25.6593 27.2314 26.2157 26.7369L27.5664 25.5362V35.1133C27.5664 35.8575 28.1698 36.4609 28.9141 36.4609H32.957V27.9258C32.957 27.1815 33.5604 26.5781 34.3047 26.5781H39.6953C40.4396 26.5781 41.043 27.1815 41.043 27.9258V36.4609H45.086C45.8302 36.4609 46.4336 35.8575 46.4336 35.1133V25.5362L47.7843 26.7369C48.0306 26.9565 48.3492 27.0777 48.6792 27.0773C49.0508 27.0773 49.4207 26.9245 49.6869 26.6249C50.1814 26.0687 50.1313 25.2169 49.5751 24.7224Z" fill="white"/>
<defs>
<linearGradient id="paint0_linear_48_1926" x1="37" y1="0" x2="37" y2="74" gradientUnits="userSpaceOnUse">
<stop stop-color="#067337"/>
<stop offset="1" stop-color="#00853C"/>
</linearGradient>
</defs>
</svg>
